DataType=double
version=3
OpenSimVersion=4.3-2021-07-13-51ee73d
endheader
time	ground_force_r_vx	ground_force_r_vy	ground_force_r_vz	ground_force_r_px	ground_force_r_py	ground_force_r_pz	ground_force_l_vx	ground_force_l_vy	ground_force_l_vz	ground_force_l_px	ground_force_l_py	ground_force_l_pz	ground_torque_r_x	ground_torque_r_y	ground_torque_r_z	ground_torque_l_x	ground_torque_l_y	ground_torque_l_z
2.150051725618882	0	0	0	0	0	0	-4.389884210086716	4.229386216666373	0	0	0	0	0	0	0	0	0	0.01806466376586842
2.15371224287507	0	0	0	0	0	0	-11.96925866392693	12.45493657745092	0	0	0	0	0	0	0	0	0	0.08906369641909419
2.157372760131259	0	0	0	0	0	0	-26.74405111085766	30.32350221829882	0	0	0	0	0	0	0	0	0	0.3019015313792394
2.161033277387448	0	0	0	0	0	0	-27.46591308103964	58.14058014900647	0	0	0	0	0	0	0	0	0	1.158547192217093
2.164693794643637	0	0	0	0	0	0	-31.27875972664026	123.1616888266193	0	0	0	0	0	0	0	0	0	3.138651965563576
2.168354311899826	0	0	0	0	0	0	-27.61650368371392	249.960893128388	0	0	0	0	0	0	0	0	0	7.463233619664106
2.172014829156015	0	0	0	0	0	0	-20.58808894876304	394.201868588924	0	0	0	0	0	0	0	0	0	13.52605763660082
2.175675346412203	0	0	0	0	0	0	-16.91885084135652	523.9711682955342	0	0	0	0	0	0	0	0	0	21.572458214355
2.179335863668392	0	0	0	0	0	0	-22.30944089321968	625.1180262008561	0	0	0	0	0	0	0	0	0	30.76984579681491
2.182996380924581	0	0	0	0	0	0	-20.6602784000732	708.1533212680666	0	0	0	0	0	0	0	0	0	42.03098016857309
2.18665689818077	0	0	0	0	0	0	-28.94739984991169	786.477085124556	0	0	0	0	0	0	0	0	0	56.46337208622985
2.190317415436959	0	0	0	0	0	0	-38.1386515227865	822.6544266843991	0	0	0	0	0	0	0	0	0	65.65201944252345
2.193977932693147	0	0	0	0	0	0	-37.2644053366696	861.0262037130522	0	0	0	0	0	0	0	0	0	75.600117324119
2.197638449949336	0	0	0	0	0	0	-69.07156055196572	889.2977330102733	0	0	0	0	0	0	0	0	0	81.88404163748885
2.201298967205525	0	0	0	0	0	0	-78.88564931145406	898.0344552947795	0	0	0	0	0	0	0	0	0	84.12338725564716
2.204959484461714	0	0	0	0	0	0	-94.89235789966924	929.0869599806431	0	0	0	0	0	0	0	0	0	89.30025472038614
2.208620001717903	0	0	0	0	0	0	-117.8026872399413	962.7472604791762	0	0	0	0	0	0	0	0	0	95.10594033980043
2.212280518974092	0	0	0	0	0	0	-130.1916606801024	1000.140172989158	0	0	0	0	0	0	0	0	0	101.3861123464576
2.21594103623028	0	0	0	0	0	0	-139.6430815560713	1046.02975869244	0	0	0	0	0	0	0	0	0	108.0077936466197
2.219601553486469	0	0	0	0	0	0	-143.3025707880898	1095.96431374643	0	0	0	0	0	0	0	0	0	114.967784569489
2.223262070742658	0	0	0	0	0	0	-146.0554058087695	1146.757965428709	0	0	0	0	0	0	0	0	0	122.0398998896039
2.226922587998847	0	0	0	0	0	0	-141.7481621864223	1201.686987873588	0	0	0	0	0	0	0	0	0	129.9843573023402
2.230583105255036	0	0	0	0	0	0	-136.0687117872184	1258.862621217919	0	0	0	0	0	0	0	0	0	138.2620445249484
2.234243622511225	0	0	0	0	0	0	-129.1818240380912	1304.789750968831	0	0	0	0	0	0	0	0	0	145.0010011290329
2.237904139767413	0	0	0	0	0	0	-120.6848398391294	1344.834488340199	0	0	0	0	0	0	0	0	0	151.316491337248
2.241564657023602	0	0	0	0	0	0	-115.385359346217	1374.849317144782	0	0	0	0	0	0	0	0	0	156.137685136532
2.245225174279791	0	0	0	0	0	0	-107.3782534613543	1399.81235695882	0	0	0	0	0	0	0	0	0	160.3184457933422
2.24888569153598	0	0	0	0	0	0	-100.8936792824957	1421.262573035402	0	0	0	0	0	0	0	0	0	164.3748864922228
2.252546208792169	0	0	0	0	0	0	-95.29814291116537	1435.714209628018	0	0	0	0	0	0	0	0	0	167.9462211624372
2.256206726048357	0	0	0	0	0	0	-89.88565137697161	1443.32357901605	0	0	0	0	0	0	0	0	0	170.5482916450144
2.259867243304546	0	0	0	0	0	0	-82.32739530203261	1447.896664104345	0	0	0	0	0	0	0	0	0	172.6296112866582
2.263527760560735	0	0	0	0	0	0	-76.11287521373261	1445.993114136148	0	0	0	0	0	0	0	0	0	173.9012604702811
2.267188277816924	0	0	0	0	0	0	-70.23867464278676	1437.362468998871	0	0	0	0	0	0	0	0	0	174.5447360605183
2.270848795073113	0	0	0	0	0	0	-64.2187837289386	1429.218304419452	0	0	0	0	0	0	0	0	0	175.3576789895459
2.274509312329302	0	0	0	0	0	0	-57.36220844150858	1419.140185590832	0	0	0	0	0	0	0	0	0	175.8200269600365
2.27816982958549	0	0	0	0	0	0	-50.74110938846448	1405.054785637838	0	0	0	0	0	0	0	0	0	175.9792807260188
2.281830346841679	0	0	0	0	0	0	-45.47806538463283	1385.824605133902	0	0	0	0	0	0	0	0	0	175.7416941245109
2.285490864097868	0	0	0	0	0	0	-35.42621425626263	1370.832146879932	0	0	0	0	0	0	0	0	0	177.1952175283166
2.289151381354057	0	0	0	0	0	0	-28.78595824486525	1350.778851128215	0	0	0	0	0	0	0	0	0	178.6298701559282
